<svg aria-hidden="true" style="position:absolute;width:0;height:0" xmlns="http://www.w3.org/2000/svg" overflow="hidden">
<defs>
<symbol
id="logo"
						viewBox="0 0 138 138"
					>
						<path
							d="M56.5 7.21688C64.235 2.75106 73.765 2.75106 81.5 7.21688L116.256 27.2831C123.991 31.7489 128.756 40.0021 128.756 48.9338V89.0662C128.756 97.9979 123.991 106.251 116.256 110.717L81.5 130.783C73.765 135.249 64.235 135.249 56.5 130.783L21.7442 110.717C14.0092 106.251 9.24425 97.9979 9.24425 89.0662V48.9338C9.24425 40.0021 14.0092 31.7489 21.7442 27.2831L56.5 7.21688Z"
							fill="white"
						/>
						<path
							d="M128.756 88.5317V89.0662C128.756 97.9979 123.991 106.251 116.256 110.717L81.5 130.783C73.765 135.249 64.235 135.249 56.5 130.783L21.7442 110.717C21.1716 110.386 20.6152 110.035 20.0758 109.664L17.5 101L26 68L33.5 56L55.5 78.5L82.5 38.5L128.756 88.5317Z"
							fill="#066C61"
						/>
						<path
							d="M18.1726 108.216C14.6282 105.242 11.9954 101.354 10.5392 97.0092L10.5 96.5C11.6667 83.5 16.7 56.8 27.5 54C41.5 50.3704 48.5 96.5 48.5 96.5C48.5 96.5 54.7204 32.2561 74 33.5C89.5 34.5 95.5 66.5 91.5 125L91.4793 125.022L81.5 130.783C78.1083 132.741 74.3715 133.841 70.5923 134.082C77.5658 121.943 76.9064 74.0186 73.5 56.5C71.5082 62.0157 69.939 70.5009 68.2456 79.6574C64.4128 100.382 59.9439 124.546 48.5 125.5C48.0761 125.535 47.6559 125.513 47.2396 125.437L43.4536 123.251C36.248 116.272 30.6804 94.8558 28.5 83C28.103 93.7194 24.061 105.982 22.0451 110.891L21.7442 110.717C21.4834 110.566 21.2259 110.411 20.9718 110.252L18.1726 108.216Z"
							fill="#B3DBC9"
						/></symbol
				>
	<symbol
	id="clear"
		width="24"
		height="24"
		viewBox="0 0 24 24"
		fill="none"
		xmlns="http://www.w3.org/2000/svg"
	>
		<path
			d="M17.6569 16.2426L13.4142 12L17.6569 7.75736L16.2426 6.34315L12 10.5858L7.75736 6.34315L6.34315 7.75736L10.5858 12L6.34315 16.2426L7.75736 17.6569L12 13.4142L16.2426 17.6569L17.6569 16.2426Z"
			fill="#5F5F5F"
		/>
	</symbol>
	<symbol
	id="calendar"
		width="24"
		height="24"
		viewBox="0 0 24 24"
		fill="none"
		xmlns="http://www.w3.org/2000/svg"
	>
		<path
			d="M7 11H9V13H7V11ZM7 15H9V17H7V15ZM11 11H13V13H11V11ZM11 15H13V17H11V15ZM15 11H17V13H15V11ZM15 15H17V17H15V15Z"
			fill="#5F5F5F"
		/>
		<path
			d="M5 22H19C20.103 22 21 21.103 21 20V6C21 4.897 20.103 4 19 4H17V2H15V4H9V2H7V4H5C3.897 4 3 4.897 3 6V20C3 21.103 3.897 22 5 22ZM19 8L19.001 20H5V8H19Z"
			fill="#5F5F5F"
		/>
	</symbol>
	<symbol
		id="like"
		width="18"
		height="18"
		viewBox="0 0 18 18"
		fill="none"
		xmlns="http://www.w3.org/2000/svg"
	>
		<path
			d="M1.5 6.29999C1.49991 5.76177 1.6071 5.22893 1.8153 4.7326C2.02351 4.23628 2.32855 3.78644 2.71261 3.40936C3.09667 3.03229 3.55203 2.73555 4.05209 2.53648C4.55215 2.33742 5.08687 2.24003 5.625 2.24999C6.26172 2.24661 6.89189 2.37859 7.47374 2.6372C8.05559 2.8958 8.57584 3.27511 9 3.74999C9.42416 3.27511 9.94441 2.8958 10.5263 2.6372C11.1081 2.37859 11.7383 2.24661 12.375 2.24999C12.9131 2.24003 13.4479 2.33742 13.9479 2.53648C14.448 2.73555 14.9033 3.03229 15.2874 3.40936C15.6714 3.78644 15.9765 4.23628 16.1847 4.7326C16.3929 5.22893 16.5001 5.76177 16.5 6.29999C16.5 10.317 11.7157 13.35 9 15.75C6.29025 13.3297 1.5 10.32 1.5 6.29999Z"
			fill="black"
		/>
	</symbol>
	<symbol
		id="comment"
		width="18"
		height="18"
		viewBox="0 0 18 18"
		fill="none"
		xmlns="http://www.w3.org/2000/svg"
	>
		<path
			d="M16.5 3C16.5 2.175 15.825 1.5 15 1.5H3C2.175 1.5 1.5 2.175 1.5 3V12C1.5 12.825 2.175 13.5 3 13.5H13.5L16.5 16.5V3Z"
			fill="black"
		/>
	</symbol>
</defs>
</svg>